<svg width="74" height="24" viewBox="0 0 74 24" fill="none" xmlns="http://www.w3.org/2000/svg">
<g clip-path="url(#clip0_4_37)">
<path d="M30.336 6.24C30.184 5.96 29.964 5.748 29.676 5.604C29.396 5.452 29.064 5.376 28.68 5.376C28.016 5.376 27.484 5.596 27.084 6.036C26.684 6.468 26.484 7.048 26.484 7.776C26.484 8.552 26.692 9.16 27.108 9.6C27.532 10.032 28.112 10.248 28.848 10.248C29.352 10.248 29.776 10.12 30.12 9.864C30.472 9.608 30.728 9.24 30.888 8.76H28.284V7.248H32.748V9.156C32.596 9.668 32.336 10.144 31.968 10.584C31.608 11.024 31.148 11.38 30.588 11.652C30.028 11.924 29.396 12.06 28.692 12.06C27.86 12.06 27.116 11.88 26.46 11.52C25.812 11.152 25.304 10.644 24.936 9.996C24.576 9.348 24.396 8.608 24.396 7.776C24.396 6.944 24.576 6.204 24.936 5.556C25.304 4.9 25.812 4.392 26.46 4.032C27.108 3.664 27.848 3.48 28.68 3.48C29.688 3.48 30.536 3.724 31.224 4.212C31.92 4.7 32.38 5.376 32.604 6.24H30.336ZM33.4766 8.64C33.4766 7.952 33.6046 7.348 33.8606 6.828C34.1246 6.308 34.4806 5.908 34.9286 5.628C35.3766 5.348 35.8766 5.208 36.4286 5.208C36.9006 5.208 37.3126 5.304 37.6646 5.496C38.0246 5.688 38.3006 5.94 38.4926 6.252V5.304H40.5446V12H38.4926V11.052C38.2926 11.364 38.0126 11.616 37.6526 11.808C37.3006 12 36.8886 12.096 36.4166 12.096C35.8726 12.096 35.3766 11.956 34.9286 11.676C34.4806 11.388 34.1246 10.984 33.8606 10.464C33.6046 9.936 33.4766 9.328 33.4766 8.64ZM38.4926 8.652C38.4926 8.14 38.3486 7.736 38.0606 7.44C37.7806 7.144 37.4366 6.996 37.0286 6.996C36.6206 6.996 36.2726 7.144 35.9846 7.44C35.7046 7.728 35.5646 8.128 35.5646 8.64C35.5646 9.152 35.7046 9.56 35.9846 9.864C36.2726 10.16 36.6206 10.308 37.0286 10.308C37.4366 10.308 37.7806 10.16 38.0606 9.864C38.3486 9.568 38.4926 9.164 38.4926 8.652ZM50.5732 5.232C51.4052 5.232 52.0652 5.484 52.5532 5.988C53.0492 6.492 53.2972 7.192 53.2972 8.088V12H51.2572V8.364C51.2572 7.932 51.1412 7.6 50.9092 7.368C50.6852 7.128 50.3732 7.008 49.9732 7.008C49.5732 7.008 49.2572 7.128 49.0252 7.368C48.8012 7.6 48.6892 7.932 48.6892 8.364V12H46.6492V8.364C46.6492 7.932 46.5332 7.6 46.3012 7.368C46.0772 7.128 45.7652 7.008 45.3652 7.008C44.9652 7.008 44.6492 7.128 44.4172 7.368C44.1932 7.6 44.0812 7.932 44.0812 8.364V12H42.0292V5.304H44.0812V6.144C44.2892 5.864 44.5612 5.644 44.8972 5.484C45.2332 5.316 45.6132 5.232 46.0372 5.232C46.5412 5.232 46.9892 5.34 47.3812 5.556C47.7812 5.772 48.0932 6.08 48.3172 6.48C48.5492 6.112 48.8652 5.812 49.2652 5.58C49.6652 5.348 50.1012 5.232 50.5732 5.232ZM56.7843 6.252C56.9763 5.94 57.2523 5.688 57.6123 5.496C57.9723 5.304 58.3843 5.208 58.8483 5.208C59.4003 5.208 59.9003 5.348 60.3483 5.628C60.7963 5.908 61.1483 6.308 61.4043 6.828C61.6683 7.348 61.8003 7.952 61.8003 8.64C61.8003 9.328 61.6683 9.936 61.4043 10.464C61.1483 10.984 60.7963 11.388 60.3483 11.676C59.9003 11.956 59.4003 12.096 58.8483 12.096C58.3763 12.096 57.9643 12.004 57.6123 11.82C57.2603 11.628 56.9843 11.376 56.7843 11.064V12H54.7323V3.12H56.7843V6.252ZM59.7123 8.64C59.7123 8.128 59.5683 7.728 59.2803 7.44C59.0003 7.144 58.6523 6.996 58.2363 6.996C57.8283 6.996 57.4803 7.144 57.1923 7.44C56.9123 7.736 56.7723 8.14 56.7723 8.652C56.7723 9.164 56.9123 9.568 57.1923 9.864C57.4803 10.16 57.8283 10.308 58.2363 10.308C58.6443 10.308 58.9923 10.16 59.2803 9.864C59.5683 9.56 59.7123 9.152 59.7123 8.64ZM64.9288 3.12V12H62.8768V3.12H64.9288ZM72.7279 8.544C72.7279 8.736 72.7159 8.936 72.6919 9.144H68.0479C68.0799 9.56 68.2119 9.88 68.4439 10.104C68.6839 10.32 68.9759 10.428 69.3199 10.428C69.8319 10.428 70.1879 10.212 70.3879 9.78H72.5719C72.4599 10.22 72.2559 10.616 71.9599 10.968C71.6719 11.32 71.3079 11.596 70.8679 11.796C70.4279 11.996 69.9359 12.096 69.3919 12.096C68.7359 12.096 68.1519 11.956 67.6399 11.676C67.1279 11.396 66.7279 10.996 66.4399 10.476C66.1519 9.956 66.0079 9.348 66.0079 8.652C66.0079 7.956 66.1479 7.348 66.4279 6.828C66.7159 6.308 67.1159 5.908 67.6279 5.628C68.1399 5.348 68.7279 5.208 69.3919 5.208C70.0399 5.208 70.6159 5.344 71.1199 5.616C71.6239 5.888 72.0159 6.276 72.2959 6.78C72.5839 7.284 72.7279 7.872 72.7279 8.544ZM70.6279 8.004C70.6279 7.652 70.5079 7.372 70.2679 7.164C70.0279 6.956 69.7279 6.852 69.3679 6.852C69.0239 6.852 68.7319 6.952 68.4919 7.152C68.2599 7.352 68.1159 7.636 68.0599 8.004H70.6279ZM31.5 21H30.408L26.016 14.34V21H24.924V12.624H26.016L30.408 19.272V12.624H31.5V21ZM36.2295 21.108C35.6135 21.108 35.0535 20.968 34.5495 20.688C34.0535 20.408 33.6615 20.012 33.3735 19.5C33.0935 18.98 32.9535 18.38 32.9535 17.7C32.9535 17.028 33.0975 16.436 33.3855 15.924C33.6815 15.404 34.0815 15.008 34.5855 14.736C35.0895 14.456 35.6535 14.316 36.2775 14.316C36.9015 14.316 37.4655 14.456 37.9695 14.736C38.4735 15.008 38.8695 15.4 39.1575 15.912C39.4535 16.424 39.6015 17.02 39.6015 17.7C39.6015 18.38 39.4495 18.98 39.1455 19.5C38.8495 20.012 38.4455 20.408 37.9335 20.688C37.4215 20.968 36.8535 21.108 36.2295 21.108ZM36.2295 20.148C36.6215 20.148 36.9895 20.056 37.3335 19.872C37.6775 19.688 37.9535 19.412 38.1615 19.044C38.3775 18.676 38.4855 18.228 38.4855 17.7C38.4855 17.172 38.3815 16.724 38.1735 16.356C37.9655 15.988 37.6935 15.716 37.3575 15.54C37.0215 15.356 36.6575 15.264 36.2655 15.264C35.8655 15.264 35.4975 15.356 35.1615 15.54C34.8335 15.716 34.5695 15.988 34.3695 16.356C34.1695 16.724 34.0695 17.172 34.0695 17.7C34.0695 18.236 34.1655 18.688 34.3575 19.056C34.5575 19.424 34.8215 19.7 35.1495 19.884C35.4775 20.06 35.8375 20.148 36.2295 20.148ZM44.7093 21L42.1293 18.096V21H41.0373V12.12H42.1293V17.34L44.6613 14.424H46.1853L43.0893 17.7L46.1973 21H44.7093ZM50.0811 21.108C49.4651 21.108 48.9051 20.968 48.4011 20.688C47.9051 20.408 47.5131 20.012 47.2251 19.5C46.9451 18.98 46.8051 18.38 46.8051 17.7C46.8051 17.028 46.9491 16.436 47.2371 15.924C47.5331 15.404 47.9331 15.008 48.4371 14.736C48.9411 14.456 49.5051 14.316 50.1291 14.316C50.7531 14.316 51.3171 14.456 51.8211 14.736C52.3251 15.008 52.7211 15.4 53.0091 15.912C53.3051 16.424 53.4531 17.02 53.4531 17.7C53.4531 18.38 53.3011 18.98 52.9971 19.5C52.7011 20.012 52.2971 20.408 51.7851 20.688C51.2731 20.968 50.7051 21.108 50.0811 21.108ZM50.0811 20.148C50.4731 20.148 50.8411 20.056 51.1851 19.872C51.5291 19.688 51.8051 19.412 52.0131 19.044C52.2291 18.676 52.3371 18.228 52.3371 17.7C52.3371 17.172 52.2331 16.724 52.0251 16.356C51.8171 15.988 51.5451 15.716 51.2091 15.54C50.8731 15.356 50.5091 15.264 50.1171 15.264C49.7171 15.264 49.3491 15.356 49.0131 15.54C48.6851 15.716 48.4211 15.988 48.2211 16.356C48.0211 16.724 47.9211 17.172 47.9211 17.7C47.9211 18.236 48.0171 18.688 48.2091 19.056C48.4091 19.424 48.6731 19.7 49.0011 19.884C49.3291 20.06 49.6891 20.148 50.0811 20.148Z" fill="black"/>
<path d="M12 2C6.47 2 2 6.5 2 12C2 17.5 6.5 22 12 22C17.5 22 22 17.5 22 12C22 6.5 17.5 2 12 2ZM12 20C7.58 20 4 16.42 4 12C4 7.58 7.58 4 12 4C16.42 4 20 7.58 20 12C20 16.42 16.42 20 12 20ZM8 14L7 8L10 10L12 7L14 10L17 8L16 14H8ZM8.56 16C8.22 16 8 15.78 8 15.44V15H16V15.44C16 15.78 15.78 16 15.44 16H8.56Z" fill="#10B981"/>
</g>
<defs>
<clipPath id="clip0_4_37">
<rect width="74" height="24" fill="white"/>
</clipPath>
</defs>
</svg>
